<svg width="965" height="404" viewBox="0 0 965 404" xmlns="http://www.w3.org/2000/svg" font-family="-apple-system,BlinkMacSystemFont,&#39;Segoe UI&#39;,system-ui,sans-serif"><defs><marker id="bromaid-arr" viewBox="0 0 10 10" refX="8.5" refY="5" markerWidth="6" markerHeight="6" orient="auto" markerUnits="strokeWidth"><path d="M0 1 L9.5 5 L0 9 z" fill="#555555"/></marker></defs><rect x="409" y="24" width="531.446" height="356" rx="5" fill="rgba(120,120,120,0.05)" stroke="#FF9900" stroke-width="1"/><rect x="416" y="30" width="121.40899999999999" height="23" rx="3.5" fill="rgba(0,0,0,0.55)" stroke="rgba(255,255,255,0.06)" stroke-width="1"/><rect x="422" y="33" width="17" height="17" rx="3" fill="#FF9900" opacity="0.16"/><g transform="translate(422 33) scale(0.7083333333333334)" fill="#FF9900"><path d="M6 16.8 12 6l6 10.8h-2.2L12 10.9 8.2 16.8H6Z"/><path d="M8.1 18.6h7.8v1.6H8.1z"/></g><text x="444" y="44" font-size="9.5" font-weight="650" fill="#ffffff" letter-spacing="0.35"><tspan x="444">AWS EU-NORTH-1</tspan></text><rect x="432" y="56" width="480.446" height="216" rx="5" fill="rgba(74,144,226,0.05)" stroke="rgba(74,144,226,0.6)" stroke-width="1"/><rect x="439" y="62" width="71.314" height="23" rx="3.5" fill="rgba(0,0,0,0.55)" stroke="rgba(255,255,255,0.06)" stroke-width="1"/><rect x="445" y="65" width="17" height="17" rx="3" fill="rgba(74,144,226,0.6)" opacity="0.16"/><g transform="translate(445 65) scale(0.7083333333333334)" fill="rgba(74,144,226,0.6)"><path d="M7 7a2 2 0 1 0 0 4 2 2 0 0 0 0-4Zm10 0a2 2 0 1 0 0 4 2 2 0 0 0 0-4ZM12 13a2 2 0 1 0 0 4 2 2 0 0 0 0-4Z"/><path d="M8.7 10.3 10.9 13m4.4 0 2.2-2.7M9 9h6"/></g><text x="467" y="76" font-size="9.5" font-weight="650" fill="#ffffff" letter-spacing="0.6"><tspan x="467">VPC 1N</tspan></text><rect x="455" y="88" width="199.55550000000002" height="166" rx="5" fill="rgba(242,166,39,0.06)" stroke="rgba(242,166,39,0.7)" stroke-width="1" stroke-dasharray="4 3"/><rect x="462" y="94" width="71.314" height="23" rx="3.5" fill="rgba(0,0,0,0.55)" stroke="rgba(255,255,255,0.06)" stroke-width="1"/><rect x="468" y="97" width="17" height="17" rx="3" fill="rgba(242,166,39,0.7)" opacity="0.16"/><g transform="translate(468 97) scale(0.7083333333333334)" fill="rgba(242,166,39,0.7)"><path d="M12 7.5a4.5 4.5 0 1 0 0 9 4.5 4.5 0 0 0 0-9Zm0 2a2.5 2.5 0 1 1 0 5 2.5 2.5 0 0 1 0-5Z"/><path d="M12 3v2.2M12 18.8V21M3 12h2.2M18.8 12H21M5.1 5.1l1.6 1.6M17.3 17.3l1.6 1.6M18.9 5.1l-1.6 1.6M6.7 17.3l-1.6 1.6"/></g><text x="490" y="108" font-size="9.5" font-weight="650" fill="#ffffff" letter-spacing="0.6"><tspan x="490">PUBLIC</tspan></text><rect x="704.5555" y="88" width="179.8905" height="166" rx="5" fill="rgba(232,90,90,0.06)" stroke="rgba(232,90,90,0.7)" stroke-width="1" stroke-dasharray="4 3"/><rect x="711.5555" y="94" width="78.2505" height="23" rx="3.5" fill="rgba(0,0,0,0.55)" stroke="rgba(255,255,255,0.06)" stroke-width="1"/><rect x="717.5555" y="97" width="17" height="17" rx="3" fill="rgba(232,90,90,0.7)" opacity="0.16"/><g transform="translate(717.5555 97) scale(0.7083333333333334)" fill="rgba(232,90,90,0.7)"><path d="M7 11h10v9H7v-9Zm2-1V8.5A3.5 3.5 0 0 1 12.5 5 3.5 3.5 0 0 1 16 8.5V10h-2V8.5A1.5 1.5 0 0 0 12.5 7 1.5 1.5 0 0 0 11 8.5V10H9Z"/></g><text x="739.5555" y="108" font-size="9.5" font-weight="650" fill="#ffffff" letter-spacing="0.6"><tspan x="739.5555">PRIVATE</tspan></text><path d="M 334 152 L 473 152" fill="none" stroke="#555555" stroke-width="1" stroke-linecap="round" stroke-linejoin="round" marker-end="url(#bromaid-arr)"/><path d="M 144 94.5 L 339 94.5 Q 344 94.5 344 99.5 L 344 131 Q 344 136 349 136 L 473 136" fill="none" stroke="#555555" stroke-width="1" stroke-linecap="round" stroke-linejoin="round" marker-end="url(#bromaid-arr)"/><rect x="259" y="76.5" width="30" height="16" rx="1.5" fill="#ffffff" stroke="#dddddd" stroke-width="0.5"/><text x="262" y="87.5" font-size="10" fill="#555555">CICD</text><path d="M 626.5555 144 L 722.5555 144" fill="none" stroke="#555555" stroke-width="1" stroke-linecap="round" stroke-linejoin="round" marker-end="url(#bromaid-arr)"/><path d="M 626.5555 212 L 722.5555 212" fill="none" stroke="#555555" stroke-width="1" stroke-linecap="round" stroke-linejoin="round" marker-end="url(#bromaid-arr)"/><rect x="427" y="292" width="88" height="25" rx="12.5" fill="#ffffff" stroke="#dddddd" stroke-width="1"/><rect x="435" y="297.5" width="14" height="14" rx="3" fill="#FF9900" opacity="0.16"/><g transform="translate(435 297.5) scale(0.5833333333333334)" fill="#FF9900"><path d="M7 7h4v4H7V7z"/><path d="M13 7h4v4h-4V7z"/><path d="M7 13h4v4H7v-4z"/><path d="M13 13h4v4h-4v-4z"/></g><text x="455" y="308.1" font-size="10.5" font-weight="600" fill="#1a1a1a">CloudTrail</text><rect x="427" y="337" width="91" height="25" rx="12.5" fill="#ffffff" stroke="#dddddd" stroke-width="1"/><rect x="435" y="342.5" width="14" height="14" rx="3" fill="#FF9900" opacity="0.16"/><g transform="translate(435 342.5) scale(0.5833333333333334)" fill="#FF9900"><path d="M7 7h4v4H7V7z"/><path d="M13 7h4v4h-4V7z"/><path d="M7 13h4v4H7v-4z"/><path d="M13 13h4v4h-4v-4z"/></g><text x="455" y="353.1" font-size="10.5" font-weight="600" fill="#1a1a1a">GuardDuty</text><rect x="473" y="120" width="153.55550000000002" height="48" rx="5" fill="#ffffff" stroke="#dddddd" stroke-width="1"/><rect x="481" y="133" width="22" height="22" rx="3" fill="#888888" opacity="0.14"/><g transform="translate(481 133) scale(0.9166666666666666)" fill="#888888"><path d="M7 7h4v4H7V7z"/><path d="M13 7h4v4h-4V7z"/><path d="M7 13h4v4H7v-4z"/><path d="M13 13h4v4h-4v-4z"/></g><text x="511" y="147" font-size="11.5" font-weight="500" fill="#1a1a1a"><tspan x="511">Proxy → EU-Central</tspan></text><rect x="506.55550000000005" y="188" width="120" height="48" rx="5" fill="#ffffff" stroke="#dddddd" stroke-width="1"/><rect x="514.5555" y="201" width="22" height="22" rx="3" fill="#888888" opacity="0.14"/><g transform="translate(514.5555 201) scale(0.9166666666666666)" fill="#888888"><path d="M7 7h4v4H7V7z"/><path d="M13 7h4v4h-4V7z"/><path d="M7 13h4v4H7v-4z"/><path d="M13 13h4v4h-4v-4z"/></g><text x="544.5555" y="215" font-size="11.5" font-weight="500" fill="#1a1a1a"><tspan x="544.5555">Router North</tspan></text><rect x="722.5555" y="120" width="133.8905" height="48" rx="5" fill="#ffffff" stroke="#dddddd" stroke-width="1"/><text x="850.446" y="130" font-size="8.2" font-weight="600" fill="#999999" text-anchor="end">db</text><rect x="730.5555" y="133" width="22" height="22" rx="3" fill="#9b59b6" opacity="0.14"/><g transform="translate(730.5555 133) scale(0.9166666666666666)" fill="#9b59b6"><path d="M12 3c-4.42 0-8 1.34-8 3v12c0 1.66 3.58 3 8 3s8-1.34 8-3V6c0-1.66-3.58-3-8-3zm0 2c3.87 0 6 .99 6 1s-2.13 1-6 1-6-.99-6-1 2.13-1 6-1z"/><path d="M6 9.25V12c0 .71 2.13 1.75 6 1.75s6-1.04 6-1.75V9.25C16.6 10.02 14.5 10.5 12 10.5s-4.6-.48-6-1.25z"/><path d="M6 14.25V17c0 .71 2.13 1.75 6 1.75s6-1.04 6-1.75v-2.75C16.6 15.02 14.5 15.5 12 15.5s-4.6-.48-6-1.25z"/></g><text x="760.5555" y="147" font-size="11.5" font-weight="500" fill="#1a1a1a"><tspan x="760.5555">EU Tenant DBs</tspan></text><rect x="722.5555" y="188" width="120" height="48" rx="5" fill="#ffffff" stroke="#dddddd" stroke-width="1"/><text x="836.5555" y="198" font-size="8.2" font-weight="600" fill="#999999" text-anchor="end">db</text><rect x="730.5555" y="201" width="22" height="22" rx="3" fill="#9b59b6" opacity="0.14"/><g transform="translate(730.5555 201) scale(0.9166666666666666)" fill="#9b59b6"><path d="M12 3c-4.42 0-8 1.34-8 3v12c0 1.66 3.58 3 8 3s8-1.34 8-3V6c0-1.66-3.58-3-8-3zm0 2c3.87 0 6 .99 6 1s-2.13 1-6 1-6-.99-6-1 2.13-1 6-1z"/><path d="M6 9.25V12c0 .71 2.13 1.75 6 1.75s6-1.04 6-1.75V9.25C16.6 10.02 14.5 10.5 12 10.5s-4.6-.48-6-1.25z"/><path d="M6 14.25V17c0 .71 2.13 1.75 6 1.75s6-1.04 6-1.75v-2.75C16.6 15.02 14.5 15.5 12 15.5s-4.6-.48-6-1.25z"/></g><text x="760.5555" y="215" font-size="11.5" font-weight="500" fill="#1a1a1a"><tspan x="760.5555">EU Core DB</tspan></text><rect x="214" y="127.5" width="120" height="49" rx="5" fill="#ffffff" stroke="#dddddd" stroke-width="1"/><text x="328" y="137.5" font-size="8.2" font-weight="600" fill="#999999" text-anchor="end">actor</text><rect x="222" y="141" width="22" height="22" rx="3" fill="#5dade2" opacity="0.14"/><g transform="translate(222 141) scale(0.9166666666666666)" fill="#5dade2"><path d="M7 7h4v4H7V7z"/><path d="M13 7h4v4h-4V7z"/><path d="M7 13h4v4H7v-4z"/><path d="M13 13h4v4h-4v-4z"/></g><text x="252" y="148" font-size="11.5" font-weight="500" fill="#1a1a1a"><tspan x="252">Developer</tspan></text><text x="252" y="162.5" font-size="10" fill="#555555"><tspan x="252">Tailscale VPN</tspan></text><rect x="24" y="70.5" width="120" height="48" rx="5" fill="#ffffff" stroke="#dddddd" stroke-width="1"/><text x="138" y="80.5" font-size="8.2" font-weight="600" fill="#999999" text-anchor="end">actor</text><rect x="32" y="83.5" width="22" height="22" rx="3" fill="#888888" opacity="0.14"/><g transform="translate(32 83.5) scale(0.9166666666666666)" fill="#888888"><path d="M12 .297c-6.63 0-12 5.373-12 12 0 5.303 3.438 9.8 8.205 11.385.6.113.82-.258.82-.577 0-.285-.01-1.04-.015-2.04-3.338.724-4.042-1.61-4.042-1.61C4.422 18.07 3.633 17.7 3.633 17.7c-1.087-.744.084-.729.084-.729 1.205.084 1.838 1.236 1.838 1.236 1.07 1.835 2.809 1.305 3.495.998.108-.776.417-1.305.76-1.605-2.665-.3-5.466-1.332-5.466-5.93 0-1.31.465-2.38 1.235-3.22-.135-.303-.54-1.523.105-3.176 0 0 1.005-.322 3.3 1.23.96-.267 1.98-.399 3-.405 1.02.006 2.04.138 3 .405 2.28-1.552 3.285-1.23 3.285-1.23.645 1.653.24 2.873.12 3.176.765.84 1.23 1.91 1.23 3.22 0 4.61-2.805 5.625-5.475 5.92.42.36.81 1.096.81 2.22 0 1.606-.015 2.896-.015 3.286 0 .315.21.69.825.57C20.565 22.092 24 17.592 24 12.297c0-6.627-5.373-12-12-12"/></g><text x="62" y="97.5" font-size="11.5" font-weight="500" fill="#1a1a1a"><tspan x="62">GitHub</tspan></text></svg>